<svg xmlns="http://www.w3.org/2000/svg" width="238.588" height="478" viewBox="0 0 238.588 478">
  <g id="peep-standing-9" transform="translate(17.55)">
    <g id="BODY" transform="translate(-17.55 92.085)">
      <path id="_Background" data-name="ðŸŽ¨ Background" d="M26.1,357.5h0a10.315,10.315,0,0,1-1.428-.1c-.393-.038-1.179-.054-2.173-.074-2.1-.042-5.266-.105-8-.445a18.525,18.525,0,0,1-3.621-.749,5.335,5.335,0,0,1-1.246-.59,1.842,1.842,0,0,1-.691-.766,1.262,1.262,0,0,1-.022-.906,3.148,3.148,0,0,1,.706-1.1,3.247,3.247,0,0,1-.276-.946,3.053,3.053,0,0,1,.025-.917,4.532,4.532,0,0,1,.768-1.75,18.971,18.971,0,0,1,3.117-3.211h0c.484-.429.942-.834,1.363-1.24a90.275,90.275,0,0,0,6.9-7.445,40.2,40.2,0,0,0,6.255-9.3,3.56,3.56,0,0,1,1.067-1.176l.2-.125.128-.2c.915-1.465,1.736-2.989,2.529-4.463h0c.374-.7.761-1.414,1.153-2.118-3.111-1.127-5.834-2.228-9.1-3.68,1.039-6.139,2.29-12.82,3.825-20.423,1.368-6.781,2.831-13.652,4.245-20.3,1.506-7.079,3.064-14.4,4.513-21.632,1.624-8.108,2.935-15.238,4.008-21.8.593-5.184,1.137-10.463,1.663-15.568.99-9.608,2.014-19.543,3.408-29.276.75-5.24,1.544-10,2.428-14.561.479-2.469.99-4.906,1.521-7.244.557-2.452,1.154-4.879,1.774-7.214l.826.064.46-1.592c-.7-.018-2.07-.064-2.732-.09l.159.815a55.572,55.572,0,0,1-7.366-1.546l-.016,0c-.559-.144-1.137-.293-1.7-.434a3.91,3.91,0,0,1-1.32-.424,2.666,2.666,0,0,1-.984-.878,1.991,1.991,0,0,1-.3-.824,2.407,2.407,0,0,1,.1-1.006c.1-1.483.317-2.97.528-4.408v0c.166-1.134.338-2.306.452-3.472-.928-.635-1.917-1.379-2.941-2.209a16.113,16.113,0,0,0-2.651,1.787h0a23.312,23.312,0,0,1-2.4,1.689,6.861,6.861,0,0,1-1.213.568,3.691,3.691,0,0,1-1.2.217,2.787,2.787,0,0,1-.936-.159c-2.181-2.937-4.44-6.338-6.905-10.4-2.173-3.578-4.215-7.178-6.189-10.66h0c-1.322-2.331-2.57-4.533-3.8-6.634-1.6-2.615-2.937-4.9-4.076-6.981-1.282-2.344-2.335-4.463-3.22-6.479a50.091,50.091,0,0,1-2.27-6.156c-.3-1.015-.548-2.029-.75-3.014-.206-1.005-.367-2.015-.477-3A32.022,32.022,0,0,1,1.243,80.612,55.785,55.785,0,0,1,7.578,66.685c1.879-3,3.766-6.284,5.765-9.76l0,0c2.32-4.035,4.719-8.208,7.312-12.295,1.4-2.21,2.722-4.178,4.035-6.015,1.462-2.046,2.931-3.944,4.366-5.641a61.9,61.9,0,0,1,4.756-5.053,45.115,45.115,0,0,1,5.205-4.25c.918-.636,1.856-1.227,2.789-1.757.96-.545,1.944-1.042,2.924-1.476A30.758,30.758,0,0,1,47.8,19.266a29.56,29.56,0,0,1,3.215-.834c.688-.129,1.4-.224,2.084-.316.853-.114,1.736-.232,2.595-.417a11.432,11.432,0,0,0,2.524-.828,4.511,4.511,0,0,1,.2-1.048,3.153,3.153,0,0,1,.366-.777,1.275,1.275,0,0,1,.906-.658c.357-.079.731-.172,1.093-.261l.006,0a14.339,14.339,0,0,1,3.173-.548,1.341,1.341,0,0,1,.526-.1,4.089,4.089,0,0,1,.821.114l.175.036a17.92,17.92,0,0,0,1.275-4.266h0c.168-.8.342-1.618.568-2.393a9.813,9.813,0,0,1,.9-2.191,5.248,5.248,0,0,1,.218-1.475,3.123,3.123,0,0,1,.878-1.366,4.2,4.2,0,0,1,.829-.585A6.67,6.67,0,0,1,71.314.865a15.229,15.229,0,0,1,3.567-.6C76.475.136,78.364,0,80.292,0A26.717,26.717,0,0,1,84.5.29,14.215,14.215,0,0,1,86.4.717a8.693,8.693,0,0,1,1.636.673,4.811,4.811,0,0,1,1.322,1.761,8.736,8.736,0,0,1,.656,2.29,19.52,19.52,0,0,1,.047,4.852,10.832,10.832,0,0,0,0,3.434,9.321,9.321,0,0,0,.51,1.837,9.994,9.994,0,0,0,.984,1.877,7.674,7.674,0,0,1,2.263-.364,6.263,6.263,0,0,1,1.31.137,6.327,6.327,0,0,1,1.235.4,7.338,7.338,0,0,1,1.168.657,9.433,9.433,0,0,1,1.108.9,20.8,20.8,0,0,1,3.988,5.733,73.932,73.932,0,0,1,7.716,1.331,19.679,19.679,0,0,1,2.83.919,12.128,12.128,0,0,1,2.332,1.278,13.47,13.47,0,0,1,3.73,4.2,47.89,47.89,0,0,1,3.417,7.352,168.185,168.185,0,0,1,6.517,17.022,51.3,51.3,0,0,1,1.485,5.549c.4,1.863.734,3.77,1.058,5.614v0c.313,1.784.636,3.629,1.02,5.437a53.514,53.514,0,0,0,1.407,5.389c1.548,3.885,3.1,7.425,4.6,10.849h0c2.322,5.3,4.515,10.313,6.311,15.737a87.269,87.269,0,0,1,2.373,8.555c.342,1.538.648,3.118.91,4.7.272,1.647.506,3.354.694,5.072.238,1.966.4,3.785.471,5.406a37.415,37.415,0,0,1,0,3.975,15.117,15.117,0,0,1-.369,2.666,4.128,4.128,0,0,1-.621,1.479c-1.268-.368-2.763-.712-4.445-1.024-1.477-.274-3.049-.511-4.546-.688l3.025,2.308a32.257,32.257,0,0,0-.583,5.651c-.077,2.176-.067,4.582-.055,7.129.011,2.5.022,5.081-.048,7.657a73.433,73.433,0,0,1-.542,7.542c-.165,1.249-.37,2.423-.611,3.49a25.669,25.669,0,0,1-.92,3.175,16.772,16.772,0,0,1-1.292,2.764,11.552,11.552,0,0,1-1.725,2.259,9.452,9.452,0,0,1-1.443,1.193,9.144,9.144,0,0,1-1.689.888,10.128,10.128,0,0,1-1.954.555,12.651,12.651,0,0,1-2.238.192h0a16.645,16.645,0,0,1-2.095-.139,12.751,12.751,0,0,1,.144-2.931c.038-.348.07-.648.09-.881-.308.022-.8.045-1.264.045a7.079,7.079,0,0,1-.834-.038c-.451,1.305-1.018,2.569-1.566,3.791a41.611,41.611,0,0,0-1.726,4.266c-.436,1.668-.989,3.365-1.566,5.1-1.564,5.285-3,10.636-4.257,15.9-1.254,5.241-2.375,10.555-3.333,15.794-.952,5.208-1.77,10.5-2.431,15.723-.657,5.188-1.18,10.468-1.554,15.692-.371,5.182-.606,10.464-.7,15.7-.092,5.189-.048,10.487.132,15.747.178,5.207.494,10.534.94,15.833.441,5.238,1.021,10.608,1.725,15.959l-.254.093-.1.184-.154.058a1.215,1.215,0,0,1-.741.477,5.082,5.082,0,0,1-1.116.079c-2.4.084-4.632.178-6.8.268h-.015c-2.825.118-5.493.229-8.04.3a23.348,23.348,0,0,1,.028,6.6c-.021.231-.044.493-.066.747.2-.014.4-.021.594-.021a10.37,10.37,0,0,1,3.472.647,24.682,24.682,0,0,1,3.338,1.533c5.307,2.613,9.608,4.9,13.537,7.194.8.516,1.716,1.028,2.6,1.524,2.812,1.579,5.72,3.212,6.235,5.462a3.31,3.31,0,0,1-.025,1.55,5.422,5.422,0,0,1-.844,1.758l1.019.4a.423.423,0,0,1,.069.033c.064.229-.288.8-.609,1.228-.351.464-.831.963-1.054.964h-.007c-.824.039-1.661.058-2.489.058a65.546,65.546,0,0,1-10.065-.84c-3.4-.52-6.864-1.224-10.871-2.039h0c-2.157-.439-4.388-.893-6.808-1.357a46.033,46.033,0,0,0-4.77-1.094h0c-2.523-.507-5.664-1.139-8.1-1.866a15.724,15.724,0,0,1-3.032-1.174,3.645,3.645,0,0,1-.89-.651,1.068,1.068,0,0,1-.331-.694.725.725,0,0,1,.409-.662,2.465,2.465,0,0,1,.8-.185c.11-.013.213-.026.312-.043a15.7,15.7,0,0,1-.33-3.458,10.6,10.6,0,0,1,.408-2.709,16.922,16.922,0,0,1,2.116-4.28,25.67,25.67,0,0,0,1.836-3.337,14.556,14.556,0,0,0,.716-2.041,15.6,15.6,0,0,0,.449-2.448,12.478,12.478,0,0,1-2.308.272,5.451,5.451,0,0,1-1.462-.184c-.213-3.474-.336-7.29-.376-11.666-.035-3.9,0-7.887.028-11.741v0c.041-5.015.083-10.2-.023-15.3-.057-2.746-.151-5.248-.287-7.646-.153-2.694-.356-5.189-.619-7.628l-1.971-.219-.845,2.492-.167.492h0c-3.118,9.2-6.341,18.705-9.367,28.192-1.63,5.113-3.067,9.788-4.392,14.292-1.489,5.064-2.8,9.776-4,14.407a.25.25,0,0,1-.253.23,1.163,1.163,0,0,1-.566-.251,70.773,70.773,0,0,1-10.279-1.034c-.083,2.049-.172,4.164-.251,6.029l.521.281c.336.47.194,2.671.134,3.612l-.008.13a11.616,11.616,0,0,0-.018,2.192,1.961,1.961,0,0,1,.195.858,3.8,3.8,0,0,1-.141,1.022,10.331,10.331,0,0,1-1.034,2.358,44.139,44.139,0,0,1-3.267,4.706l-.351.461c-.822,1.068-1.636,2.26-2.422,3.414a38.03,38.03,0,0,1-5.061,6.408,11.755,11.755,0,0,1-3.108,2.148,8.878,8.878,0,0,1-3.758.82ZM40.866,57.7h0c-2.3,4.5-4.6,8.617-7.02,12.57-2.572,4.2-5.334,8.3-8.442,12.538a20.632,20.632,0,0,0-2.16,2.905,5.6,5.6,0,0,0-.809,2.293,4.689,4.689,0,0,0,.029,1.111,7.393,7.393,0,0,0,.279,1.19,28.441,28.441,0,0,0,1.19,2.93,137.649,137.649,0,0,0,8.211,16.011,172.216,172.216,0,0,0,10.364,15.428c-.093-4.2-.185-8.472-.274-12.607l0-.147v-.007c-.381-17.74-.776-36.083-1.364-54.215Z" transform="translate(30.264 -8.715)" fill="#fff"/>
      <path id="_Ink" data-name="ðŸ– Ink" d="M25.9,353.886a85.577,85.577,0,0,1-12.2-.871l-.575-.094a9.6,9.6,0,0,1-2.021-.513,3.283,3.283,0,0,1-1.592-1.244,2.745,2.745,0,0,1-.44-1.662,2.27,2.27,0,0,1,.663-1.48,4.688,4.688,0,0,1-.17-1.1,4.268,4.268,0,0,1,.095-1.024,5.284,5.284,0,0,1,.82-1.842,17.137,17.137,0,0,1,3.02-3.111c.589-.515,1.146-1,1.631-1.495,2.174-2.1,4.252-4.316,6.175-6.58a87.156,87.156,0,0,0,5.481-7.169l.2-.464c.663-1.569,1.407-3.159,2.556-3.857.837-1.333,1.6-2.741,2.33-4.1.233-.433.5-.923.755-1.392-2.5-.92-5.169-2.013-8.162-3.343a1.051,1.051,0,0,1-.541-.622,1.65,1.65,0,0,1-.07-.832l.007-.035c2.243-11.674,4.716-23.5,7.108-34.943,1.6-7.656,3.256-15.574,4.828-23.377,1.762-8.747,3.229-16.414,4.485-23.44.808-6.522,1.5-13.176,2.177-19.61v0c.965-9.221,1.962-18.756,3.307-28.077.724-5.017,1.487-9.573,2.334-13.928.459-2.359.949-4.687,1.457-6.916.532-2.339,1.1-4.653,1.695-6.877a54.847,54.847,0,0,1-7.871-1.622c-.5-.129-1.067-.275-1.611-.411A4.588,4.588,0,0,1,39,150.407a2.841,2.841,0,0,1-.563-1.287,4.951,4.951,0,0,1,.049-1.746c.1-1.377.3-2.763.5-4.1.142-.963.289-1.958.4-2.943-.63-.442-1.287-.935-1.952-1.466-1.173.877-2.4,1.712-3.633,2.479a11.29,11.29,0,0,1-1.988,1.188,4.387,4.387,0,0,1-1.781.431,2.826,2.826,0,0,1-.924-.152,3.054,3.054,0,0,1-.866-.475,4.589,4.589,0,0,1-.811-.827,8.087,8.087,0,0,1-.759-1.207c-2.749-4.352-5.39-8.651-7.851-12.776-2.623-4.4-5.144-8.768-7.491-12.991-.785-1.461-1.618-2.947-2.423-4.384-1.924-3.435-3.913-6.986-5.511-10.625a47.828,47.828,0,0,1-2.072-5.565c-.289-.968-.537-1.935-.738-2.876-.21-.988-.375-1.98-.49-2.95a23.012,23.012,0,0,1-.065-3.309,30.8,30.8,0,0,1,.387-3.511c.2-1.174.463-2.412.795-3.68.32-1.222.71-2.506,1.158-3.815a80.256,80.256,0,0,1,3.227-7.9c1.184-2.535,2.579-5.241,4.145-8.043,2.644-4.731,5.791-9.78,9.619-15.438,3.264-4.824,6.454-9.242,9.016-12.792l.572-.792c1.613-1.952,3.07-3.606,4.455-5.055a52.709,52.709,0,0,1,4.992-4.64c.9-.73,1.82-1.407,2.722-2.012A31.641,31.641,0,0,1,44,15.417a27.023,27.023,0,0,1,3.058-1.376,24.212,24.212,0,0,1,3.241-.967c.752-.112,1.529-.2,2.281-.282a24.152,24.152,0,0,0,5.949-1.174,4.217,4.217,0,0,1,.651-1.736,2.461,2.461,0,0,1,1.5-1.016c.363-.08.736-.173,1.1-.262a15.588,15.588,0,0,1,3.26-.571,2.733,2.733,0,0,1,.737-.112,1.7,1.7,0,0,1,.306.026A25.46,25.46,0,0,0,67.078,4.3,21.59,21.59,0,0,1,68.323.063.309.309,0,0,1,68.489,0a.155.155,0,0,1,.122.062c.167.2.17.886.01,2.091-.135,1.018-.359,2.2-.54,3.142v0c-.143.751-.256,1.344-.256,1.515l-.029.144a10.45,10.45,0,0,1-.658,2.153,5.525,5.525,0,0,1-.558.98,3.8,3.8,0,0,1-.766.8c.557,4.572,1.248,9.052,2.054,13.318l.49.064c1.083.144,2.186.3,3.253.448h0c2.357.33,4.794.672,7.2.924a69.421,69.421,0,0,0,7.243.421c1.5,0,2.9-.063,4.278-.192H90.4a7.653,7.653,0,0,0,4.958-1.78,12.236,12.236,0,0,0,3.2-4.306c-.109-.4-.217-.794-.329-1.2A16.348,16.348,0,0,1,96.4,17.28a16.786,16.786,0,0,1-1.657-1.565,15.342,15.342,0,0,1-2.569-3.737A12.027,12.027,0,0,1,90.981,7.71a10.139,10.139,0,0,1,.64-4.47.334.334,0,0,1,.323-.221.362.362,0,0,1,.232.081.049.049,0,0,1,.046.051l-.081,1.257a22.235,22.235,0,0,0,.008,3.762,8.631,8.631,0,0,0,1.136,3.573,8.124,8.124,0,0,1,1.8-.211,7.122,7.122,0,0,1,1.6.181,7.319,7.319,0,0,1,1.466.511,9.575,9.575,0,0,1,2.551,1.813,16.477,16.477,0,0,1,2.1,2.536,29.362,29.362,0,0,1,1.7,2.861l1.653.245c1.506.224,3.107.472,4.657.82a22.726,22.726,0,0,1,4.315,1.372,14.71,14.71,0,0,1,1.948,1.046,12.574,12.574,0,0,1,1.766,1.367,12.335,12.335,0,0,1,1.552,1.749,14,14,0,0,1,1.3,2.192l.428.912c1.214,2.6,2.259,4.9,3.195,7.048,1.108,2.543,2.074,4.887,2.953,7.165a113.6,113.6,0,0,1,4.661,14.75c.438,1.954.779,3.962,1.11,5.9h0v0c.286,1.684.582,3.424.94,5.121a44.256,44.256,0,0,0,1.339,5.033c1.416,3.754,3.083,7.481,4.7,11.086v0c1.272,2.844,2.588,5.784,3.772,8.72.637,1.581,1.187,3.034,1.68,4.442.553,1.581,1.021,3.066,1.432,4.54a31.886,31.886,0,0,1,1.5,5.459c.6,2.826,1.164,6.084,1.578,9.175a79.7,79.7,0,0,1,.775,9.416c.029,3.049-.276,5.129-.907,6.183a1.882,1.882,0,0,1-.51.579,1.182,1.182,0,0,1-.642.221,43.247,43.247,0,0,0-5.265-1.236.822.822,0,0,1,.283.406,1.157,1.157,0,0,1,.039.522,92.723,92.723,0,0,0-.664,13.178c.076,2.473.086,4.578.031,6.623a69.1,69.1,0,0,1-.595,7.638c-.187,1.341-.42,2.616-.691,3.791a30.381,30.381,0,0,1-1.038,3.554,20.054,20.054,0,0,1-1.449,3.154,13.239,13.239,0,0,1-1.923,2.59,10.147,10.147,0,0,1-1.428,1.229,9.151,9.151,0,0,1-1.641.923,9.307,9.307,0,0,1-1.868.581,10.778,10.778,0,0,1-2.11.2,14.656,14.656,0,0,1-3.263-.4.885.885,0,0,1-.453-.351,1.285,1.285,0,0,1-.184-.554,6.212,6.212,0,0,1,.081-1.453,8.089,8.089,0,0,0,.1-1.263l-.107,0c-.054,0-.111,0-.17-.006-.4,1.089-.883,2.156-1.348,3.189a39.244,39.244,0,0,0-1.667,4.115c-.215.683-.414,1.4-.606,2.084v0a30.278,30.278,0,0,1-1.511,4.5c-1.264,4.5-2.444,9.076-3.508,13.59-1.074,4.559-2.059,9.18-2.926,13.736-.876,4.6-1.656,9.265-2.318,13.853-.669,4.639-1.236,9.33-1.685,13.941-.454,4.664-.8,9.375-1.026,14-.229,4.68-.344,9.4-.341,14.03,0,4.686.128,9.407.369,14.032.245,4.682.617,9.394,1.105,14,.223,2.24.475,4.49.75,6.687a14.941,14.941,0,0,0,.291,2.183,28.693,28.693,0,0,1,.454,3.422c.05,1.209-.15,1.864-.612,2a.8.8,0,0,1-.376.282,2.061,2.061,0,0,1-1.111.606,6.2,6.2,0,0,1-1.315.1h-.284a8.183,8.183,0,0,0-.862.034c-4.874.217-8.863.376-12.554.5a21.435,21.435,0,0,1-.053,4.815c-.015.17-.031.362-.047.549,2.391.02,4.625,1.163,6.785,2.269.584.3,1.187.608,1.774.882,3.979,1.967,7.958,4.1,11.825,6.348a31.456,31.456,0,0,0,2.767,1.638h0c.942.518,1.916,1.054,2.827,1.643a12.366,12.366,0,0,1,2.407,1.941,6.02,6.02,0,0,1,.831,1.13,4.269,4.269,0,0,1,.469,1.261,4.092,4.092,0,0,1,.021,1.412,5.648,5.648,0,0,1-.513,1.581,1.075,1.075,0,0,1,.687,1.31,4.181,4.181,0,0,1-1.2,2,3.115,3.115,0,0,1-1.839,1.041c-2.194-.011-4.43-.125-6.839-.349-2.144-.2-4.372-.481-6.812-.861-4.531-.706-9.1-1.65-13.516-2.563-.959-.2-1.951-.4-2.925-.6-1.8-.476-3.677-.864-5.5-1.239-1.945-.4-3.957-.817-5.887-1.342-1.04-.283-1.972-.575-2.85-.89a26,26,0,0,1-2.731-1.152,1.552,1.552,0,0,1-.787-.823,2.22,2.22,0,0,1-.143-1.162,2.138,2.138,0,0,1,.433-1.043,1.507,1.507,0,0,1,.954-.558,17.658,17.658,0,0,1-.167-3.385,10.571,10.571,0,0,1,.438-2.534,14.294,14.294,0,0,1,1.965-3.77h0a23.151,23.151,0,0,0,1.611-2.721,14.734,14.734,0,0,0,1.22-3.775,5.463,5.463,0,0,1-.879.067,8.143,8.143,0,0,1-1.612-.174.472.472,0,0,1-.306.151c-.127,0-.244-.091-.348-.272a2.886,2.886,0,0,1-.261-.751,16.937,16.937,0,0,1-.313-2.55c-.132-2.035-.132-4.541-.133-6.555h0c0-1.588,0-2.841-.069-3.2-.013-3.473.019-7,.05-10.4v0c.047-5.141.095-10.458-.009-15.681-.056-2.814-.15-5.376-.287-7.833-.154-2.759-.359-5.317-.626-7.821l-2.515,7.42c-2.655,7.842-5.727,16.968-8.592,26.048-3.054,9.678-5.554,18.294-7.642,26.338a1.242,1.242,0,0,1-1.25.987,1.592,1.592,0,0,1-.86-.256,69.213,69.213,0,0,1-9-.856c-.058,1.413-.117,2.816-.177,4.248.891.481.745,2.741.627,4.557a13.675,13.675,0,0,0-.049,1.985,2.777,2.777,0,0,1,.219,1.068,4.724,4.724,0,0,1-.154,1.216,11.334,11.334,0,0,1-1.149,2.7,45.936,45.936,0,0,1-3.7,5.3l0,0c-.525.679-.978,1.266-1.31,1.741-.487.682-.965,1.391-1.471,2.141h0a36.006,36.006,0,0,1-4.784,6.112,11.974,11.974,0,0,1-3.026,2.146,9.085,9.085,0,0,1-3.691.912l-.194,0C27.306,353.878,26.6,353.886,25.9,353.886ZM13.827,350.03h0a7.16,7.16,0,0,0,.754.318c.343.047.654.087.95.121C14.944,350.337,14.37,350.189,13.827,350.03ZM34.42,321.515h0a10.459,10.459,0,0,0-1.89.181,14.753,14.753,0,0,0-2.2.6,79.946,79.946,0,0,1-13.556,18.154,15.982,15.982,0,0,1-2,1.9,20.735,20.735,0,0,0-2.2,2.072,5.805,5.805,0,0,0-.78,1.116,3.056,3.056,0,0,0-.354,1.178,2.518,2.518,0,0,0,.161,1.078,3.776,3.776,0,0,0,.706,1.133l.462.085c2.534.462,4.487.767,6.331.989a53.136,53.136,0,0,0,6.385.415c1.079,0,2.142-.042,3.16-.124a12.255,12.255,0,0,0,2.84-1.2,16.142,16.142,0,0,0,2.5-1.8,28.829,28.829,0,0,0,4.151-4.615c.813-1.446,1.743-2.947,2.843-4.589,1.087-1.623,2.228-3.214,3.1-4.419a5.485,5.485,0,0,0,1.073-2.412,13.544,13.544,0,0,0,.2-2.663c.043-1.187.083-2.249.123-3.247a3.724,3.724,0,0,1-1.289.241,3.922,3.922,0,0,1-1.844-.5,14.872,14.872,0,0,1-1.77-1.156h0l-.026-.019c-.164-.118-.334-.241-.506-.362a9.289,9.289,0,0,0-5.624-2.035Zm45.114,1.6h0a11.128,11.128,0,0,0-1.41,3.652,11.823,11.823,0,0,0-.074,3.919l0,.124a3.163,3.163,0,0,0,.261,1.417,1.116,1.116,0,0,0,.444.449,1.812,1.812,0,0,0,.788.2l3.717.937c6.031,1.518,12.459,3.108,18.918,4.4,3.4.679,6.525,1.22,9.557,1.655,3.373.484,6.525.822,9.637,1.034a6.848,6.848,0,0,0,1.976-1.758,3.038,3.038,0,0,0,.627-1.869,2.947,2.947,0,0,0-.7-1.757,6.521,6.521,0,0,0-2.02-1.582l-.937-.576c-3.241-1.988-7.076-4.306-10.945-6.424a111.64,111.64,0,0,0-11.406-5.507,5.082,5.082,0,0,0-1.76-.307,6.994,6.994,0,0,0-2.081.343,13.411,13.411,0,0,0-1.983.816,23.542,23.542,0,0,1-3.878,1.29,20.131,20.131,0,0,1-4.628.618,9.675,9.675,0,0,1-2.287-.246,4.837,4.837,0,0,1-1.819-.827Zm45.716,16.655h0l-.029.05-.01.017,0,.005-.061.105a.673.673,0,0,1,.149.1A.827.827,0,0,0,125.25,339.768Zm-90.27-19.3a9.726,9.726,0,0,1,5.573,1.876c.287.19.558.379.82.562a15.066,15.066,0,0,0,1.435.927,2.762,2.762,0,0,0,1.3.388,1.768,1.768,0,0,0,.807-.2l.086-.045h0a3.809,3.809,0,0,1-.169-2.088,15.288,15.288,0,0,1,.524-2.135v0l.084-.283c-1.993-.361-4.055-.837-6.128-1.415-1.941-.54-3.957-1.187-5.99-1.923a4.268,4.268,0,0,1-.195,1.367c-.131.46-.311.921-.47,1.327-.034.088-.071.181-.106.273-.06.156-.12.332-.183.518v0h0a9.323,9.323,0,0,1-.535,1.336A11.155,11.155,0,0,1,34.98,320.472ZM82.565,314.3a11.235,11.235,0,0,1,.075,2.155,16.031,16.031,0,0,1-.318,2.411,9.837,9.837,0,0,1-1.75,4.141h0l0,0a12.407,12.407,0,0,0,1.857.138,14.617,14.617,0,0,0,2.7-.26,21.04,21.04,0,0,0,2.638-.682c1.738-.562,3.443-1.308,5.093-2.029h0l.065-.028.818-.357a13.945,13.945,0,0,1,.625-2.925c.31-.987.7-1.978,1.043-2.83l-2.265.07c-3.115.095-6.737.2-10.3.2Zm-2.318,7.475c-.125.235-.256.479-.372.694l-.053.1a1.369,1.369,0,0,0,.206.185A1.848,1.848,0,0,1,80.247,321.779ZM52.641,153.1c-1.058,5.251-2.047,10.685-2.94,16.152-.861,5.271-1.658,10.734-2.37,16.236-.684,5.283-1.31,10.768-1.862,16.3-.527,5.285-1,10.788-1.414,16.356-.582,5.18-1.3,10.45-2.183,16.11-.79,5.042-1.7,10.281-2.78,16.015-2.008,10.651-4.32,21.436-6.555,31.865v0h0c-2,9.327-4.066,18.972-5.908,28.484,2.389,1.048,4.744,1.99,7,2.8,2.421.869,4.826,1.622,7.149,2.237a73.354,73.354,0,0,0,7.315,1.551,64.691,64.691,0,0,0,7.5.744c1.1-4.092,2.3-8.286,3.666-12.82,1.215-4.042,2.533-8.267,4.03-12.915,2.783-8.639,5.784-17.487,8.687-26.044,3.09-9.109,6.285-18.528,9.258-27.813,1.6-5,3.008-9.552,4.3-13.921,1.455-4.907,2.73-9.455,3.9-13.9,1.257-4.778,2.386-9.442,3.358-13.862,1.039-4.731,1.94-9.374,2.675-13.8.779-4.685,1.4-9.3,1.853-13.717.474-4.637.774-9.216.892-13.612a.172.172,0,0,1,.127-.052.146.146,0,0,1,.154.116,39.329,39.329,0,0,1,.208,7.8v.026c-.014.345-.028.7-.04,1.052-.194,4.414-.541,8.963-1.032,13.519-.474,4.395-1.093,8.913-1.842,13.43-.457,2.7-.978,5.475-1.549,8.261-.546,2.666-1.155,5.425-1.811,8.2-1.221,5.168-2.617,10.482-4.269,16.243-1.412,4.925-3.013,10.184-4.9,16.077-1.77,5.539-3.565,10.945-5.241,15.961a5.068,5.068,0,0,0,.028,1.893h0a8.962,8.962,0,0,1,.106,1.092c.286,3.134.53,6.336.745,9.788.192,3.078.357,6.284.5,9.8.273,6.536.442,13.186.6,19.617v.01c.08,3.152.163,6.411.257,9.617a15.887,15.887,0,0,0,.063,2h0a8.538,8.538,0,0,1-.221,3.531c4.516-.607,9.129-.985,13.589-1.35H93.7c.855-.07,1.692-.138,2.531-.209l.04-.026a.992.992,0,0,1,.49-.175.361.361,0,0,1,.294.136c4.342-.343,8.808-.668,13.654-.994-.806-5.783-1.446-11.657-1.9-17.457-.461-5.835-.749-11.744-.857-17.562-.108-5.861-.036-11.778.215-17.589.253-5.86.695-11.76,1.312-17.536a255.65,255.65,0,0,1,16.7-68.04,2.389,2.389,0,0,1-.67-1.393,10.953,10.953,0,0,1-.114-1.765h0a9.817,9.817,0,0,0-.093-1.535c-.139-3.426-.156-6.2-.056-8.715a55.251,55.251,0,0,1,.967-8.648l-.288.017c-.607.035-3.821.208-7.491.208-5.192,0-11.438-.346-11.7-2a19.554,19.554,0,0,1-.05-4.227c.119-1.407.344-2.833.561-4.212h0c.244-1.548.5-3.149.6-4.723.212-4.077.334-8.542.373-13.652.034-4.558,0-9.187-.032-13.663l0-.3c-.005-.7-.01-1.413-.015-2.118a17.486,17.486,0,0,1-2.341.146c-1.261,0-2.533-.109-3.763-.215-.921-.079-1.873-.161-2.82-.2-.627-.006-1.288-.008-2.023-.008-.925,0-1.866,0-2.775.008H94.4c-.924,0-1.879.009-2.824.009-1.888,0-3.413-.019-4.8-.058,1.417,7.181,2.521,13.65,3.374,19.777.473,3.4.876,6.752,1.2,9.964.339,3.4.6,6.766.77,10.006l.006.133c.007.137.016.279.024.417v0a10.677,10.677,0,0,1,0,1.869,3.248,3.248,0,0,1-.659,1.7c-.875,1.1-2.212,1.3-3.5,1.493l-.014,0-.256.039c-4.648.709-9.452,1.246-14.278,1.6-4.687.34-9.518.512-14.359.512C56.952,153.2,54.788,153.17,52.641,153.1ZM32.814,315.953h0c-.07.305-.155.631-.267,1.024a5.047,5.047,0,0,1,.466-.856l.055-.076Zm49.507-1.647-.248,0v.142a.272.272,0,0,1,0,.312c-.009.467-.029.9-.061,1.319l0-.009C82.1,315.493,82.2,314.894,82.322,314.306Zm-3.152-.145.013.221c.15-.005.3-.005.44-.006h.005c.167,0,.34,0,.509-.009a4.283,4.283,0,0,0,.51-.068,10.831,10.831,0,0,1-1.478-.138Zm53.048-155.867a.2.2,0,0,1,.211.156,16.883,16.883,0,0,1-.2,6.6,38.281,38.281,0,0,1-2.058,6.345,2.009,2.009,0,0,0-.725,1.286,9.6,9.6,0,0,0-.147,1.672h0c-.01.326-.018.633-.047.9a12.808,12.808,0,0,0,1.84.14h0a9.82,9.82,0,0,0,1.979-.194,8.207,8.207,0,0,0,1.735-.562,7.949,7.949,0,0,0,1.506-.9,8.917,8.917,0,0,0,1.293-1.206,11.143,11.143,0,0,0,1.1-1.482,14.793,14.793,0,0,0,.915-1.728,23.309,23.309,0,0,0,1.355-4.071,54.583,54.583,0,0,0,1.266-9.747c.188-3.443.2-6.908.213-10.259h0c.009-2.454.017-4.772.1-6.821a31.334,31.334,0,0,1,.53-5.206.779.779,0,0,1,.566-.588,57.443,57.443,0,0,0-7.348-.485l-.149,0-.537-.013a1.115,1.115,0,0,1-.5.353,28.283,28.283,0,0,1-.167,3.125,23.478,23.478,0,0,1-.543,3.059,20.324,20.324,0,0,1-.977,2.954,18.77,18.77,0,0,1-1.469,2.809,13.449,13.449,0,0,0-1.971,4.254,41.418,41.418,0,0,0-1.471,5.3,45.525,45.525,0,0,0-.785,5.424,53.437,53.437,0,0,0,.247,10.966c2.429-3.573,3.373-7.838,4.031-11.916A.2.2,0,0,1,132.218,158.294Zm-80.059-5.209h0c.023.118.041.228.055.335.034-.114.067-.23.1-.33h-.021l-.13-.005ZM41,141.387c-.088.7-.193,1.406-.295,2.09-.183,1.229-.372,2.5-.466,3.76l-.019.111a2.86,2.86,0,0,0,.107,1.933c.261.419.792.672,1.776.847a30.42,30.42,0,0,0,7.166,1.054c3.378.179,6.809.27,10.2.27,4.1,0,8.255-.133,12.344-.4s8.232-.662,12.289-1.187a12.048,12.048,0,0,1,1.912-.249,15.078,15.078,0,0,0,2.649-.374,2.261,2.261,0,0,0,1.69-1.234c-.089-3.227-.269-6.561-.535-9.909-.253-3.191-.593-6.5-1.01-9.837-.769-6.158-1.808-12.536-3.175-19.5-1.139-5.8-2.533-12.127-4.261-19.334-1.541-6.425-3.2-12.945-4.8-19.249v0C74.074,60.392,71.5,50.269,69.3,40.26c-1.181-5.388-2.161-10.313-3-15.059-.452-2.571-.865-5.118-1.228-7.571-.381-2.573-.719-5.132-1.006-7.6a2.144,2.144,0,0,1,.062-1.258l-.31.081c-.288.074-.555.141-.813.2h0a5.69,5.69,0,0,0-2.779,1.134,2.7,2.7,0,0,0-.647,1.221,9.912,9.912,0,0,0-.279,2.135,25.581,25.581,0,0,1-1.129,4.463c-.494,1.451-1.085,2.9-1.657,4.294a50.874,50.874,0,0,0-2.326,6.52,5.467,5.467,0,0,0-.149,2.043,4.938,4.938,0,0,0,.227,1.047,3.2,3.2,0,0,0,.455.891,2.023,2.023,0,0,0,.655.578,1.858,1.858,0,0,0,.892.217,2.528,2.528,0,0,0,.484-.049A.812.812,0,0,1,57,33.511a.786.786,0,0,1,.48.167.965.965,0,0,1,.3.406.878.878,0,0,1,.054.471.782.782,0,0,1-.237.439c-1.527,1.448-3.04,2.956-4.5,4.414l0,0-.9.9c1.79,6.059,3.741,12.16,5.8,18.133S62.263,70.427,64.58,76.3s4.8,11.785,7.378,17.548,5.323,11.561,8.152,17.2a.765.765,0,0,1-.026.768.889.889,0,0,1-.724.42.656.656,0,0,1-.6-.4c-2.819-5.669-5.553-11.47-8.126-17.241S65.566,82.9,63.24,77.032c-2.333-5.89-4.568-11.9-6.641-17.866-2.081-5.986-4.056-12.088-5.87-18.136l-.221-.738c-.093-.26.177-.735.827-1.455.566-.627,1.345-1.355,2.033-2l0,0a16.722,16.722,0,0,0,1.691-1.7,5.121,5.121,0,0,1-1.508-1.074,4.169,4.169,0,0,1-.87-1.391,5.392,5.392,0,0,1-.326-1.655,9.057,9.057,0,0,1,.123-1.867,37.5,37.5,0,0,1,3.1-8.542h0c1.365-3.029,2.655-5.89,2.753-7.99a8.138,8.138,0,0,1-2.146.582c-.734.106-1.5.146-2.232.184h0a22.2,22.2,0,0,0-2.5.226,17.717,17.717,0,0,0-3.178.882,22.9,22.9,0,0,0-2.988,1.4,38.708,38.708,0,0,0-5.445,3.751C26.919,31.082,18.352,46.629,10.067,61.664,9.489,62.712,8.892,63.8,8.3,64.86a51.455,51.455,0,0,0-3.844,8.2,40.114,40.114,0,0,0-2.127,8.7,32.841,32.841,0,0,0-.248,4.419,29.352,29.352,0,0,0,.386,4.4,27.067,27.067,0,0,0,2.948,8.574c1.707,3.461,3.545,7.021,5.463,10.58,1.826,3.388,3.785,6.887,5.823,10.4,3.755,6.473,7.837,13.11,12.478,20.293a1.116,1.116,0,0,0,.921.49,3.826,3.826,0,0,0,1.807-.788c.238-.153.462-.3.667-.4a47.207,47.207,0,0,0,7.968-6.05,48.316,48.316,0,0,0,6.538-7.578c-2.358-2.9-4.612-5.841-6.7-8.739-2.183-3.03-4.249-6.106-6.142-9.141-1.972-3.162-3.814-6.374-5.476-9.548-1.725-3.3-3.307-6.647-4.7-9.96l-.079-.157a17.488,17.488,0,0,1-.864-2.016,9.29,9.29,0,0,1-.494-2.1,5.622,5.622,0,0,1,.146-2.075,4.864,4.864,0,0,1,1.056-1.931c1.839-2.362,3.7-4.854,5.533-7.405,1.737-2.419,3.507-4.975,5.26-7.6,3.189-4.768,6.416-9.881,9.866-15.633a.089.089,0,0,1,.076-.047.1.1,0,0,1,.081.046.1.1,0,0,1,.007.1c-.636,1.444-1.326,2.924-2.052,4.4.428,6.365.745,13.363.97,21.394.2,7.159.311,14.457.418,21.514v.011c.11,7.263.224,14.774.436,22.125,1.632,2.167,3.379,4.386,5.191,6.6a43.548,43.548,0,0,1,9.288-4.876,42.459,42.459,0,0,1,10.186-2.5l.449-.045.156-.016h0a29.577,29.577,0,0,1,3.046-.205,7.311,7.311,0,0,1,3.309.611,3.083,3.083,0,0,1,1.148.973,3.344,3.344,0,0,1,.557,1.6,2.838,2.838,0,0,1-.245.918,2.532,2.532,0,0,1-.5.713,4.037,4.037,0,0,1-1.625.931,20.947,20.947,0,0,1-4.724.695,32.37,32.37,0,0,0-3.558.4,8.536,8.536,0,0,0-1.508.418,4.046,4.046,0,0,0-1.18.682,56.951,56.951,0,0,0,5.911,1.894h0c1.668.469,3.393.953,5.036,1.556.884.324,1.675.656,2.416,1.013a19.108,19.108,0,0,1,2.288,1.294A8.281,8.281,0,0,1,81.9,133.5a3.015,3.015,0,0,1,.947,1.989c-.047.549-.455.971-1.211,1.252-.12.01-.245.015-.371.015a10.148,10.148,0,0,1-1.965-.264h0a13.457,13.457,0,0,0-1.473-.24,7.935,7.935,0,0,1,1.991.981,5.753,5.753,0,0,1,1.551,1.574,3.455,3.455,0,0,1,.483,1.108,2.139,2.139,0,0,1-.017,1.2,1.17,1.17,0,0,1-.859.738c-.131,0-.265.006-.4.006a30.047,30.047,0,0,1-6.27-.9c-.988-.214-2.009-.435-3.009-.6l.284.116a15.571,15.571,0,0,1,2.537,1.261,4.8,4.8,0,0,1,1,.837,1.94,1.94,0,0,1,.489.977,1.615,1.615,0,0,1-.2,1.009,3.893,3.893,0,0,1-1.006,1.126,4.584,4.584,0,0,1-2.164.505,14,14,0,0,1-4.967-1.354h0a21.248,21.248,0,0,0-2.947-1.035,18.012,18.012,0,0,0-4.14-.457,40.062,40.062,0,0,0-5.13.427l-.053.007a39.387,39.387,0,0,1-4.963.42,15.654,15.654,0,0,1-4.351-.577,15.1,15.1,0,0,1-2.287-.862A18.063,18.063,0,0,1,41,141.387h0Zm55.869-127.6c1.233,3.013,2.382,6.21,3.416,9.5.982,3.128,1.892,6.44,2.7,9.846.764,3.21,1.467,6.612,2.089,10.112.579,3.26,1.109,6.725,1.576,10.3,1.8,13.82,2.5,27.879,3.181,41.475l.031.619c.264,8.12.4,14.681.431,20.647.037,7.509-.094,14.261-.4,20.641-.12,1.19-.308,2.406-.49,3.582v0c-.188,1.217-.383,2.476-.5,3.717a21.978,21.978,0,0,0-.083,3.725A71.462,71.462,0,0,0,119,148.68h0a75.309,75.309,0,0,0,7.944-.425,14.655,14.655,0,0,1,.608-1.384,22.732,22.732,0,0,0,2.765-4.261,21.9,21.9,0,0,0,1.637-4.469,24.8,24.8,0,0,0,.676-4.621,31.664,31.664,0,0,0-.117-4.719,51.917,51.917,0,0,0-1.948-9.512c-.905-3.1-1.992-6.145-3.119-9.247-.617.026-1.279.039-2.024.039-.857,0-1.725-.017-2.565-.033h-.017c-.842-.016-1.713-.033-2.572-.033-.25,0-.493,0-.723,0a34.082,34.082,0,0,1,1.136,5.673h0c.1.7.2,1.422.319,2.129.28,1.766.64,3.577,1.1,5.535l.116.488.042.17a3.333,3.333,0,0,1,.1,1.9.994.994,0,0,1-.922.683.911.911,0,0,1-.642-.27,5.26,5.26,0,0,1-.966-2.88h0c-.054-.4-.109-.817-.2-1.2l-.057-.427c-.042-.31-.085-.622-.133-.968-.5-3.584-1.008-7.29-.125-10.837a2.279,2.279,0,0,0-.466-.038c-.231,0-.493.017-.771.034l-.04,0c-.317.02-.6.037-.878.037a2.711,2.711,0,0,1-1.02-.146.719.719,0,0,1-.49-.621,16.355,16.355,0,0,0-.261-2.433,21.375,21.375,0,0,1-.329-3.251,2.959,2.959,0,0,1,.8-2.368,4.287,4.287,0,0,1,2.583-.576c.169,0,.341,0,.48,0h.013c.138,0,.3,0,.444,0s.286,0,.4-.007c1.282-.052,2.536-.1,3.781-.1h.315a135.223,135.223,0,0,1-5.168-14.533c-.6-2.115-1.087-4.108-1.489-6.094-.386-1.909-.681-3.754-.9-5.642a80.026,80.026,0,0,1-.475-10.919c.065-3.724.3-7.6.579-12.083.217-3.526.463-7.521.65-11.971l.033-.808a.14.14,0,0,1,.041-.1.181.181,0,0,1,.127-.051.133.133,0,0,1,.14.112c.219,1.414.377,2.86.485,4.42.1,1.39.148,2.84.16,4.432.023,2.959-.1,5.97-.22,8.883v0c-.1,2.453-.2,4.989-.22,7.482a72.183,72.183,0,0,0,.3,7.47c.116,1.274.28,2.585.487,3.894.2,1.249.44,2.538.722,3.833.52,2.39,1.18,4.848,2.016,7.516,1.553,4.956,3.5,9.9,5.377,14.678v0c1.828,4.647,3.717,9.452,5.246,14.263.823,2.59,1.478,4.975,2,7.292a64.166,64.166,0,0,1,1.261,7.485,29.657,29.657,0,0,1,3.414-.193,42.086,42.086,0,0,1,10.612,1.5c.1-.831.17-1.676.222-2.511.106-1.874.12-3.8.043-5.733-.074-1.856-.235-3.768-.479-5.684-.233-1.834-.549-3.726-.938-5.626-.37-1.807-.82-3.677-1.335-5.56-.487-1.777-1.048-3.623-1.669-5.486-.58-1.741-1.233-3.559-1.941-5.4-1.242-3.237-2.7-6.68-4.446-10.527-.931-1.812-1.788-3.686-2.548-5.57s-1.433-3.8-2.018-5.742-1.084-3.911-1.5-5.9-.74-4.011-.983-6.047c-.453-2.554-1.048-5.124-1.817-7.857-.687-2.439-1.5-4.949-2.476-7.671-1.881-5.229-4.091-10.4-6.042-14.962a16.565,16.565,0,0,0-1.142-2.512,13.252,13.252,0,0,0-1.412-2.039,12.178,12.178,0,0,0-1.662-1.621,13.034,13.034,0,0,0-1.892-1.26,18.315,18.315,0,0,0-4.395-1.659,40.472,40.472,0,0,0-5.074-.882c2.651,4.409,5.24,8.754,7.2,12.047a1.224,1.224,0,0,1-.17,1.26,5.645,5.645,0,0,1-1.039,1.03,7.65,7.65,0,0,0-.606.542,8.728,8.728,0,0,1,3.558,3.576,11.49,11.49,0,0,1,.941,2.361,16.844,16.844,0,0,1,.5,2.639,32.394,32.394,0,0,1,.054,5.8c-.134,2-.378,4.021-.615,5.978h0a57.593,57.593,0,0,0-.607,7.6c-.2,2.368-.368,4.78-.528,7.113h0c-.178,2.594-.363,5.277-.6,7.912-.264,2.953-.565,5.53-.92,7.878a.376.376,0,0,1-.392.328.486.486,0,0,1-.5-.449c.03-3.169.16-6.631.4-10.584.213-3.524.491-7.1.76-10.567v-.008c.327-4.217.666-8.577.89-12.87l.072-.827c.111-1.292.23-2.8.237-4.34a19.6,19.6,0,0,0-.411-4.42,10.516,10.516,0,0,0-.651-1.987,7.3,7.3,0,0,0-1.055-1.7,6.169,6.169,0,0,0-1.539-1.317,7.159,7.159,0,0,0-2.1-.83.844.844,0,0,1-.695-.735,1.041,1.041,0,0,1,.457-1.092,10.523,10.523,0,0,0,2.47-1.906c-2.354-3.964-4.874-8.214-7.349-12.443l-.114-.193c-.255-.434-.51-.883-.757-1.317a37,37,0,0,0-2.38-3.822,13.727,13.727,0,0,0-1.451-1.676A9.577,9.577,0,0,0,96.87,12.8a14.649,14.649,0,0,0-1.615.185c-.355.054-.723.11-1.095.148a6.953,6.953,0,0,0,1.7,1.738h0c.365.3.711.592.949.838.267.276.364.463.307.59.187.145.386.292.592.437-.278-.98-.557-1.951-.841-2.942ZM60.78,141.6a21.52,21.52,0,0,1,2.72.166,22.873,22.873,0,0,1,3.821,1.263c.868.344,1.765.7,2.662.969a10.511,10.511,0,0,0,2.749.481c.7-.161,1.069-.375,1.083-.636.012-.216-.211-.46-.664-.725a7.586,7.586,0,0,0-1.242-.554c-2.59-1.241-5.286-2.389-7.609-3.368l-2.045-.86a.93.93,0,0,1-.576-1.055.845.845,0,0,1,.257-.462.778.778,0,0,1,.53-.195,1.1,1.1,0,0,1,.252.031c2.156.51,4.29.984,5.909,1.341.934.191,1.89.4,2.816.6l.017,0a76.907,76.907,0,0,0,8.678,1.545,2.112,2.112,0,0,0-.52-.75,6.068,6.068,0,0,0-.957-.75,19.236,19.236,0,0,0-2.825-1.45c-2.154-.928-4.657-1.752-6.485-2.353h0c-.7-.23-1.3-.429-1.734-.584a5.912,5.912,0,0,0-1.21-.322c-.857-.173-1.829-.368-2.18-.9a.9.9,0,0,1-.111-.7.644.644,0,0,1,.288-.455,1.061,1.061,0,0,1,.564-.131,7.814,7.814,0,0,1,2.21.553h0a7.093,7.093,0,0,0,1.215.358c4.054,1.032,8.256,1.672,12.32,2.29l.144.022a13.869,13.869,0,0,0-2.563-2.024,19.051,19.051,0,0,0-2.9-1.453,51.5,51.5,0,0,0-6.325-1.949h0c-1.8-.473-3.67-.961-5.39-1.6l-.125-.028c-.745-.172-1.626-.439-1.829-.974a.943.943,0,0,1,.209-.883c1.613-2.386,5.828-2.8,9.214-3.141h0c1.114-.111,2.166-.215,2.988-.379a2.807,2.807,0,0,0,1.7-.743.742.742,0,0,0,.135-.61,1.155,1.155,0,0,0-.415-.552,2.376,2.376,0,0,0-.746-.355,7.814,7.814,0,0,0-2.173-.245,36.769,36.769,0,0,0-5.163.512c-.38.057-.707.107-.947.136a42.97,42.97,0,0,0-5.07,1.286,41.833,41.833,0,0,0-4.927,1.924,38.3,38.3,0,0,0-4.624,2.553,33.613,33.613,0,0,0-4.161,3.173.859.859,0,0,1-.577.232.905.905,0,0,1-.416-.105,49.2,49.2,0,0,1-7.919,8.017c.552.436,1.109.85,1.655,1.229a.738.738,0,0,1,.627.423,17.93,17.93,0,0,0,2.422,1.493,14.532,14.532,0,0,0,2.317.938,13.868,13.868,0,0,0,2.242.486,16.486,16.486,0,0,0,2.2.139,39.22,39.22,0,0,0,4.957-.42l.139-.018h0A42.278,42.278,0,0,1,60.78,141.6ZM41.2,57.055c-1.583,3.032-3.311,6.058-5.281,9.25-1.756,2.845-3.665,5.757-5.836,8.9-.8,1.151-1.666,2.362-2.654,3.7l-.167.214c-.142.181-.285.36-.423.534a11.342,11.342,0,0,0-1.981,3.08,3.881,3.881,0,0,0-.219,1.692,4.926,4.926,0,0,0,.652,1.943c1.1,2.672,2.315,5.373,3.621,8.029,1.273,2.588,2.665,5.2,4.135,7.774,1.432,2.5,2.978,5.029,4.6,7.512,1.574,2.414,3.257,4.851,5,7.243-.078-3.567-.156-7.164-.23-10.643v-.012C42.07,90.14,41.711,73.457,41.2,57.055ZM124,100.881a33.921,33.921,0,0,1-4.919.65,13.253,13.253,0,0,0-1.6.171,1.426,1.426,0,0,0-.884.454,2.472,2.472,0,0,0-.28,1.7c.053.856.235,2.062.488,3.731.045.3.1.639.151,1,.432,0,.884,0,1.38,0,.977,0,1.964-.006,2.919-.011h.035c.941-.005,1.915-.011,2.872-.011,1.023,0,1.922.006,2.75.02-.768-2.085-1.571-4.195-2.348-6.236L124,100.881Zm-37.374,4.107h0v0c0,.023.009.046.014.069.025-.007.053-.013.079-.018h0c.027-.005.053-.011.076-.018-.068-.012-.123-.024-.171-.035ZM49.834,118.5a.912.912,0,0,1-.783-.429c-1.209-2.853-.379-6.538.479-9.429a4.287,4.287,0,0,1-1.607-.623,3.348,3.348,0,0,1-1.021-1.069,4.461,4.461,0,0,1-.586-2.209,7.8,7.8,0,0,1,.377-2.49l-.009-.148a4.594,4.594,0,0,1,.331-2.426,1.725,1.725,0,0,1,.813-.532,3.294,3.294,0,0,1,1.016-.136,11.935,11.935,0,0,1,1.222.086h0l.033,0h0a11.125,11.125,0,0,0,1.129.082c.085,0,.167,0,.243-.007,1.377-.142,2.786-.253,4.149-.36h0a82.076,82.076,0,0,0,8.569-.978c.379-.1.767-.234,1.142-.365a7.873,7.873,0,0,1,2.16-.535,1.727,1.727,0,0,1,1.073-.461,1.315,1.315,0,0,1,.972.483,4.1,4.1,0,0,1,.826,1.656,5.514,5.514,0,0,1,.206,1.78c.03.411.061.833.089,1.206v0c.07.944.142,1.921.2,2.881a7.813,7.813,0,0,0,.114,1.508h0c.154,1.2.345,2.7-.133,3.255a.642.642,0,0,1-.493.225c-3.087-.157-6.217-.224-9.245-.288-3.478-.074-7.074-.15-10.615-.364,0,.4-.01.8-.018,1.195-.018.926-.036,1.884.012,2.827a13.877,13.877,0,0,0,.156,2.022,9.175,9.175,0,0,1,.05,2.991.851.851,0,0,1-.333.481A.928.928,0,0,1,49.834,118.5ZM48.718,99.9a1.659,1.659,0,0,0-.815.161.69.69,0,0,0-.265.261.889.889,0,0,0-.1.434,7.213,7.213,0,0,1-.121,2.133,11.729,11.729,0,0,0-.16,1.381,3.6,3.6,0,0,0,.179,1.341,2.25,2.25,0,0,0,.82,1.086,3.7,3.7,0,0,0,1.292.564,12.982,12.982,0,0,0,2.958.256c.206,0,.4,0,.58.007,3.081.07,5.906.139,8.637.211.913.024,1.843.056,2.743.088h.015c1.642.057,3.34.116,5.012.128-.16-1.263-.241-2.565-.32-3.824-.036-.58-.074-1.179-.118-1.763a12.944,12.944,0,0,1-.082-1.324,5.92,5.92,0,0,0-.513-2.767A20.178,20.178,0,0,1,65.8,99c-.843.171-1.729.3-2.708.4-1.818.186-3.686.232-5.493.275h-.011c-.838.02-1.7.041-2.553.076a.273.273,0,0,1-.084.2,2.072,2.072,0,0,1-1.314.257c-.643,0-1.426-.069-2.11-.134l-.144-.014-.108-.01c-.615-.059-1.146-.11-1.491-.11a1.7,1.7,0,0,0-.245.014l-.341-.029C49.065,99.917,48.892,99.9,48.718,99.9Z" transform="translate(29.153 -3.937)"/>
    </g>
    <g id="Head" transform="translate(58.595 26.144)">
      <g id="HEAD-2" data-name="HEAD">
        <path id="_Background-2" data-name="ðŸŽ¨ Background" d="M57.421,25.426c-.55-9.035-3.477-19.277-12.093-23.713C26.334-5.921,1.36,13.3.038,32.942-.423,39.664,3.3,47.01,10.116,48.879a15.558,15.558,0,0,0,6.065,4.3C43.1,67.168,60.495,55.8,57.421,25.426Z" transform="translate(5.221 13.798)" fill="#fff"/>
        <path id="_Ink-2" data-name="ðŸ– Ink" d="M81.1,28.979q-1.427-3.97-3.014-7.878a81.36,81.36,0,0,0-3.239-7.543C67.213-.87,53.325-.87,46.145,1.015c-3.723-1.606-10.7-1.153-14.573.3C25.3,3.658,17.645,12.889,15.029,17.037,9.254,26.194,5.65,38.383,9.486,48.965a23.856,23.856,0,0,0,1.861,3.9,15.2,15.2,0,0,1-1.554,1.771A54.281,54.281,0,0,0,4.872,59.9a26.208,26.208,0,0,0-3.609,6.175A14.935,14.935,0,0,0,1.733,79.1a12.04,12.04,0,0,0,9.413,6.361c.2.028.4.054.608.075a11.406,11.406,0,0,0,1.885,2.346C15.867,90,21.174,91.093,24.2,91.162c.155.125.312.25.468.373a33.816,33.816,0,0,0,5.922,3.971c1.44.7,3.329,1.293,4.831.784a2.619,2.619,0,0,0,2.476-.013,6.555,6.555,0,0,0,2.564-2.847c1.333-2.744,1.012-5.746.67-8.677-.377-3.238-.74-6.476-1.108-9.714A40.149,40.149,0,0,0,38.666,67.5a17.347,17.347,0,0,0-1.591-3.619.6.6,0,0,0-.013-.282,3.45,3.45,0,0,0-1.215-1.582c-.07-.062-.139-.126-.207-.192a6.534,6.534,0,0,0-.867-.837c-.119-.121-.236-.243-.354-.365A29.537,29.537,0,0,1,31.7,57.367c-.795-1.118-1.513-2.286-2.2-3.476-.695-1.21-1.155-2.545-1.848-3.746a.19.19,0,0,0-.294-.038.946.946,0,0,0-.326.729l-.107.016a.73.73,0,0,0-.892-.626,3.529,3.529,0,0,1-1.973-.068c.112-.742.215-1.486.316-2.231.186-1.371.358-2.747.506-4.122a5.968,5.968,0,0,1,1.062.366,5.116,5.116,0,0,1,1.365.889c.395.363.667.853,1.149,1.105a.731.731,0,0,0,1.06-.816c-.329-1.268-2.193-1.994-3.346-2.234a5.328,5.328,0,0,0-1.205-.109q.137-1.325.239-2.651.048-.627.088-1.256a6.583,6.583,0,0,1,2.789-.225c.307.245.615.488.912.733.944.781,1.884,1.567,2.812,2.367l.251.215a.692.692,0,0,0,1.146-.668c-.757-5.511,2.614-9.894,6.56-13.29,4.369-3.76,12.311-4.2,17.506-10.712,2.393.488,7.735,1.936,9.939,5.454C70.3,27.9,69.9,32.321,70.132,37.913s.833,11.434-.437,16.951A15.767,15.767,0,0,1,60.439,66.3c-.122.049-.245.1-.368.144a14.863,14.863,0,0,1-7.992.726,20.858,20.858,0,0,1-7.894-3.586c-.142-.094-.35.1-.242.243,3.246,4.308,9.622,5.747,14.679,4.61q.355-.081.7-.176A13.412,13.412,0,0,0,63.78,83.127c1.814,1.435,4.065,2.594,5.324,4.609a3.316,3.316,0,0,1-1.163,4.986.979.979,0,0,0-.2,1.527c.189.145.377.293.57.439a22.724,22.724,0,0,0,4.633,2.462c4.366.519,7.3-2.691,9.182-6.478a15.163,15.163,0,0,0-.8-14.093c-1.952-3.4-5.8-6.742-4.268-11.04a12.42,12.42,0,0,1,2.744-4.026c1.236-1.346,2.564-2.607,3.749-4a14.245,14.245,0,0,0,2.805-4.627c.851-2.539.428-5.284-.212-7.819C84.779,39.624,83,34.256,81.1,28.979Z" transform="translate(-12.328 4.625)"/>
      </g>
      <g id="FACE" transform="translate(23.061 27.015)">
        <path id="_Ink-3" data-name="ðŸ– Ink" d="M15.669,27.859a5.518,5.518,0,0,1-2.1-.419,5.917,5.917,0,0,1-1.368-.787,5.829,5.829,0,0,1-1.113-1.125,1.153,1.153,0,0,1-.232-.892,1.286,1.286,0,0,1,.5-.806,1.23,1.23,0,0,1,.733-.255,1.062,1.062,0,0,1,.164.013,1.131,1.131,0,0,1,.757.5l.045.062a3.911,3.911,0,0,0,1.432,1.2,3.248,3.248,0,0,0,1.421.332,3.143,3.143,0,0,0,.352-.02,3.7,3.7,0,0,0,1.564-.551,7.326,7.326,0,0,0,1.325-1.107c.095-.1.2-.2.326-.341a.515.515,0,0,1,.27-.208.553.553,0,0,1,.176-.028.6.6,0,0,1,.49.256.548.548,0,0,1,.093.36,3.31,3.31,0,0,1-.392,1.281,4.275,4.275,0,0,1-.837,1.077,5.383,5.383,0,0,1-1.268.885,5.276,5.276,0,0,1-1.408.483A5.177,5.177,0,0,1,15.669,27.859ZM17.144,19.5h0a5.057,5.057,0,0,1-1.805-.364,9.115,9.115,0,0,1-2.123-1.207.817.817,0,0,1-.3-.472.979.979,0,0,1,.042-.53,1.205,1.205,0,0,1,.357-.517.87.87,0,0,1,.557-.218.79.79,0,0,1,.431.132l.144.111h0a11.5,11.5,0,0,0,1.329.926,3.271,3.271,0,0,0,1.593.509,1.718,1.718,0,0,0,.673-.133,1.881,1.881,0,0,0,.627-.445,1.927,1.927,0,0,0,.365-1.55,2.929,2.929,0,0,0-.776-1.375,5.659,5.659,0,0,0-1.175-.949.365.365,0,0,1-.1-.419.547.547,0,0,1,.181-.261.555.555,0,0,1,.347-.115.738.738,0,0,1,.125.011,3.935,3.935,0,0,1,1.385.5,3.144,3.144,0,0,1,.932.86,3.421,3.421,0,0,1,.595,2.283,3.766,3.766,0,0,1-.3,1.2,3.5,3.5,0,0,1-.687,1.03A3.279,3.279,0,0,1,17.144,19.5ZM5.4,11.329a1.183,1.183,0,0,1-.769-.3,1.2,1.2,0,0,1-.4-.775A8.741,8.741,0,0,1,4.27,7.979c.027-.221.056-.449.075-.7a1.361,1.361,0,0,1,.515-.973,1.585,1.585,0,0,1,.976-.343,1.2,1.2,0,0,1,.738.232,1.1,1.1,0,0,1,.408.726,6.106,6.106,0,0,1-.636,3.759,1.205,1.205,0,0,1-.425.492A.979.979,0,0,1,5.4,11.329Zm17.245-.516a1.035,1.035,0,0,1-.812-.348,3.178,3.178,0,0,1-.5-.842,3.674,3.674,0,0,1-.253-1.015,2.153,2.153,0,0,1,.586-1.847,1.218,1.218,0,0,1,.094-.143,1.327,1.327,0,0,1,1.021-.588,1.1,1.1,0,0,1,.31.046,1.494,1.494,0,0,1,1,.872,3.086,3.086,0,0,1,.123,1.686,5.649,5.649,0,0,1-.51,1.59,1.031,1.031,0,0,1-.441.436A1.335,1.335,0,0,1,22.64,10.813ZM.191,5.4a.188.188,0,0,1-.157-.1.211.211,0,0,1-.013-.206,7.163,7.163,0,0,1,1.6-2.033A9.917,9.917,0,0,1,3.773,1.592,9.224,9.224,0,0,1,6.322.7L6.594.654A6.625,6.625,0,0,1,7.707.533a1.718,1.718,0,0,1,1.373.513,1.169,1.169,0,0,1,.276.83.761.761,0,0,1-.276.542,2.113,2.113,0,0,1-1.45.426c-.114,0-.232,0-.347-.006h0c-.11,0-.234-.006-.358-.006s-.215,0-.31.008a9.79,9.79,0,0,0-2.158.368A14.656,14.656,0,0,0,.291,5.364.179.179,0,0,1,.191,5.4ZM26.448,4.3h0l-.115-.029a6.489,6.489,0,0,1-1.259-.492l-.409-.2a11.347,11.347,0,0,0-1.46-.623,17.209,17.209,0,0,0-3.326-.736,1.358,1.358,0,0,1-.667-.254,1,1,0,0,1-.373-.569A1.02,1.02,0,0,1,18.954.54,1.086,1.086,0,0,1,19.48.086,1.183,1.183,0,0,1,19.929,0a1.321,1.321,0,0,1,.259.026L20.4.069a14.87,14.87,0,0,1,3.592,1.168,7.262,7.262,0,0,1,1.58,1.04,4.617,4.617,0,0,1,1.117,1.445c.039.3,0,.377-.038.427l-.012.015-.01.014a.289.289,0,0,1-.178.119Z" transform="translate(7.687 7.553)"/>
      </g>
    </g>
  </g>
</svg>
